<svg data-v-423bf9ae="" xmlns="http://www.w3.org/2000/svg" viewBox="0 0 378 90" class="iconLeft"><!----><!----><!----><g data-v-423bf9ae="" id="85c0b386-eaab-4be6-9125-94de94701e66" fill="white" transform="matrix(6.12870278179688,0,0,6.12870278179688,102.38717814139443,-3.079674690633013)"><path d="M1.24 12.61L1.24 2.95L2.98 2.95L2.98 10.96L7.11 10.96L7.11 12.61L1.24 12.61ZM10.21 12.74Q9.50 12.74 8.94 12.48Q8.37 12.22 8.05 11.71Q7.72 11.20 7.72 10.51L7.72 10.51Q7.72 9.46 8.46 9.00Q9.19 8.53 10.45 8.53L10.45 8.53L12.22 8.53Q12.22 7.87 11.87 7.48Q11.53 7.09 10.88 7.09L10.88 7.09Q10.33 7.09 9.92 7.36Q9.52 7.63 9.27 8.05L9.27 8.05L7.99 7.13Q8.52 6.41 9.21 6.02Q9.91 5.63 10.86 5.63L10.86 5.63Q11.78 5.63 12.44 5.99Q13.11 6.34 13.46 6.99Q13.82 7.63 13.82 8.46L13.82 8.46L13.82 12.61L12.44 12.61L12.33 11.63Q11.92 12.24 11.39 12.49Q10.86 12.74 10.21 12.74L10.21 12.74ZM10.45 11.33Q10.91 11.33 11.31 11.11Q11.72 10.89 11.96 10.52Q12.21 10.16 12.22 9.73L12.22 9.73L10.54 9.73Q10.00 9.73 9.72 9.97Q9.43 10.21 9.43 10.56L9.43 10.56Q9.43 10.91 9.70 11.12Q9.97 11.33 10.45 11.33L10.45 11.33ZM17.21 12.61L14.42 5.78L16.24 5.78L17.90 10.45L19.56 5.78L21.37 5.78L18.58 12.61L17.21 12.61ZM23.69 12.74Q23.02 12.74 22.64 12.41Q22.26 12.08 22.26 11.25L22.26 11.25L22.26 2.95L23.93 2.95L23.93 10.79Q23.93 11.25 24.47 11.25L24.47 11.25Q24.66 11.25 24.93 11.20L24.93 11.20L24.93 12.61Q24.23 12.74 23.69 12.74L23.69 12.74ZM29.07 12.74Q28.05 12.74 27.25 12.26Q26.45 11.78 26.01 10.96Q25.57 10.14 25.57 9.17L25.57 9.17Q25.57 8.21 26.01 7.40Q26.45 6.59 27.25 6.11Q28.05 5.63 29.07 5.63L29.07 5.63Q30.10 5.63 30.90 6.11Q31.70 6.59 32.14 7.40Q32.57 8.21 32.57 9.17L32.57 9.17Q32.57 10.14 32.14 10.96Q31.70 11.78 30.90 12.26Q30.10 12.74 29.07 12.74L29.07 12.74ZM29.07 11.31Q29.67 11.31 30.07 11.02Q30.47 10.73 30.65 10.24Q30.84 9.76 30.84 9.17L30.84 9.17Q30.84 8.26 30.40 7.67Q29.97 7.08 29.07 7.08L29.07 7.08Q28.47 7.08 28.08 7.36Q27.68 7.64 27.49 8.11Q27.31 8.59 27.31 9.17L27.31 9.17Q27.31 9.76 27.49 10.24Q27.68 10.73 28.08 11.02Q28.47 11.31 29.07 11.31L29.07 11.31ZM35.98 12.74Q35.29 12.74 34.70 12.49Q34.10 12.23 33.70 11.80Q33.29 11.36 33.12 10.83L33.12 10.83L34.45 10.24Q34.62 10.72 34.96 11.04Q35.29 11.36 35.90 11.36L35.90 11.36Q36.26 11.36 36.51 11.24Q36.76 11.12 36.89 10.93Q37.01 10.74 37.01 10.55L37.01 10.55Q37.01 10.33 36.85 10.19Q36.69 10.04 36.45 9.96Q36.21 9.87 35.76 9.75L35.76 9.75Q35.08 9.58 34.65 9.39Q34.21 9.21 33.90 8.81Q33.58 8.42 33.58 7.76L33.58 7.76Q33.58 7.07 33.93 6.59Q34.28 6.11 34.85 5.87Q35.43 5.63 36.11 5.63L36.11 5.63Q36.98 5.63 37.65 6.02Q38.31 6.41 38.71 7.12L38.71 7.12L37.41 7.82Q37.20 7.44 36.88 7.19Q36.57 6.95 36.06 6.95L36.06 6.95Q35.66 6.95 35.42 7.12Q35.18 7.29 35.18 7.54L35.18 7.54Q35.18 7.73 35.33 7.86Q35.48 7.99 35.71 8.07Q35.94 8.16 36.35 8.28L36.35 8.28Q37.06 8.48 37.52 8.69Q37.97 8.89 38.31 9.32Q38.65 9.75 38.65 10.47L38.65 10.47Q38.65 11.22 38.27 11.73Q37.88 12.24 37.28 12.49Q36.67 12.74 35.98 12.74L35.98 12.74ZM42.20 12.74Q41.50 12.74 40.91 12.49Q40.32 12.23 39.91 11.80Q39.50 11.36 39.33 10.83L39.33 10.83L40.66 10.24Q40.84 10.72 41.17 11.04Q41.51 11.36 42.12 11.36L42.12 11.36Q42.48 11.36 42.73 11.24Q42.98 11.12 43.10 10.93Q43.22 10.74 43.22 10.55L43.22 10.55Q43.22 10.33 43.06 10.19Q42.90 10.04 42.66 9.96Q42.42 9.87 41.97 9.75L41.97 9.75Q41.30 9.58 40.86 9.39Q40.43 9.21 40.11 8.81Q39.79 8.42 39.79 7.76L39.79 7.76Q39.79 7.07 40.14 6.59Q40.49 6.11 41.07 5.87Q41.64 5.63 42.33 5.63L42.33 5.63Q43.20 5.63 43.86 6.02Q44.52 6.41 44.92 7.12L44.92 7.12L43.63 7.82Q43.42 7.44 43.10 7.19Q42.78 6.95 42.27 6.95L42.27 6.95Q41.88 6.95 41.63 7.12Q41.39 7.29 41.39 7.54L41.39 7.54Q41.39 7.73 41.54 7.86Q41.69 7.99 41.92 8.07Q42.15 8.16 42.57 8.28L42.57 8.28Q43.27 8.48 43.73 8.69Q44.19 8.89 44.53 9.32Q44.86 9.75 44.86 10.47L44.86 10.47Q44.86 11.22 44.48 11.73Q44.10 12.24 43.49 12.49Q42.88 12.74 42.20 12.74L42.20 12.74Z"></path></g><!----><g data-v-423bf9ae="" id="139f5184-df10-4691-aa6b-962865bf366e" transform="matrix(1.249790359270443,0,0,1.249790359270443,-17.49015701328289,-17.497065029786206)" stroke="none" fill="white"><path style="line-height:normal;text-indent:0;text-align:start;text-decoration-line:none;text-decoration-style:solid;text-decoration-color:#000;text-transform:none;block-progression:tb;white-space:normal;isolation:auto;mix-blend-mode:normal;solid-color:#000;solid-opacity:1" d="M84.888 14a1.125 1.125 0 00-.17.015L62.56 17.152a1.125 1.125 0 00-.636.316L43.286 36.112H31.103a1.125 1.125 0 00-.797.33l-12.645 12.65a1.125 1.125 0 00.796 1.919H30.64l6.042 5.993a1.125 1.125 0 00.003.01h.003a1.125 1.125 0 00.079.08l6.241 6.245a1.125 1.125 0 00.026.023L49 69.329v12.186a1.125 1.125 0 001.921.794l12.646-12.65a1.125 1.125 0 00.328-.796V56.685L82.536 38.04a1.125 1.125 0 00.32-.639l3.133-22.111a1.125 1.125 0 00-1.101-1.284v-.003zm-1.336 2.452L80.68 36.706 62.164 55.23l-18.058 6.02-5.342-5.343 5.969-18.063 18.515-18.52 20.304-2.871zm-14.417 13.06a1.125 1.125 0 00-.777.333l-3.206 3.161a5.287 5.287 0 00-3.046-.72v-.003a5.23 5.23 0 00-3.582 1.77 1.125 1.125 0 00-.012.014c-1.645 1.94-1.648 4.736-.158 6.635a1.125 1.125 0 00.29.37c1.293 1.097 1.406 2.885.299 4.197-1.097 1.248-2.9 1.403-4.2.308-.056-.05-.1-.106-.152-.158a1.125 1.125 0 00-.196-.205c-.735-.887-.902-2.053-.428-3.103a1.125 1.125 0 10-2.05-.925 5.21 5.21 0 00.29 4.813l-3.195 3.199a1.125 1.125 0 101.59 1.59l3.16-3.16c2.18 1.463 5.134 1.116 6.88-.88a1.125 1.125 0 00.011-.014c1.632-1.924 1.676-4.703.173-6.624a1.125 1.125 0 00-.305-.38c-1.221-1.032-1.389-2.907-.295-4.201 1.08-1.227 2.965-1.335 4.2-.302 1.02.912 1.316 2.264.775 3.462a1.125 1.125 0 102.05.926c.756-1.674.538-3.58-.462-5.062l3.148-3.105a1.125 1.125 0 00-.802-1.937zm-37.566 8.85h10.625L36.98 54.135l-5.087-5.047a1.125 1.125 0 00-.79-.328h-9.932l10.397-10.4zm30.077 19.416v10.616L51.249 78.796V68.86a1.125 1.125 0 00-.328-.794l-5.034-5.036 15.759-5.252zm-30.502 3.62a1.125 1.125 0 00-.782 1.934l6.323 6.325a1.125 1.125 0 101.59-1.591l-6.323-6.325a1.125 1.125 0 00-.808-.343zM24.33 66.61a1.125 1.125 0 00-.773.343l-9.19 9.248a1.125 1.125 0 101.593 1.585l9.193-9.249a1.125 1.125 0 00-.823-1.927zm7.92 7.865a1.125 1.125 0 00-.771.34l-9.246 9.249a1.125 1.125 0 101.59 1.59l9.246-9.248a1.125 1.125 0 00-.82-1.93z" color="#000" font-weight="400" font-family="sans-serif" overflow="visible" stroke-width="1.5" stroke-linecap="round" stroke-linejoin="round"></path></g><!----></svg>